<svg width="126" height="30" viewBox="0 0 126 30" fill="none" xmlns="http://www.w3.org/2000/svg">
<path d="M63.7 16.3996C61.2 16.3996 59.1 18.4996 59.1 20.9996C59.1 23.4996 61.2 25.5996 63.7 25.5996C66.2 25.5996 68.3 23.5996 68.3 20.9996C68.3 19.7996 67.8 18.5996 67 17.6996C66.1 16.7996 64.9 16.3996 63.7 16.3996ZM63.7 23.6996C62.6 23.7996 61.5 23.1996 61 22.0996C60.5 21.0996 60.7 19.7996 61.5 18.9996C62.3 18.1996 63.5 17.8996 64.6 18.2996C65.7 18.6996 66.4 19.6996 66.4 20.8996C66.4 21.5996 66.2 22.2996 65.7 22.7996C65.1 23.3996 64.4 23.6996 63.7 23.6996ZM53.6 16.3996C51.1 16.3996 49 18.4996 49 20.9996C49 23.4996 51.1 25.5996 53.6 25.5996C56.1 25.5996 58.2 23.5996 58.2 20.9996C58.2 19.7996 57.7 18.5996 56.9 17.6996C56 16.7996 54.8 16.3996 53.6 16.3996ZM53.6 23.6996C52.5 23.7996 51.4 23.1996 50.9 22.0996C50.4 21.0996 50.6 19.7996 51.4 18.9996C52.2 18.1996 53.4 17.8996 54.5 18.2996C55.6 18.6996 56.3 19.6996 56.3 20.8996C56.3 21.5996 56.1 22.2996 55.6 22.7996C55 23.3996 54.3 23.6996 53.6 23.6996ZM41.6 17.7996V19.6996H46.3C46.2 20.5996 45.8 21.4996 45.2 22.0996C44.3 23.0996 42.9 23.5996 41.6 23.4996C38.7 23.4996 36.4 21.1996 36.4 18.2996C36.4 15.3996 38.7 13.0996 41.6 13.0996C42.9 13.0996 44.2 13.5996 45.1 14.4996L46.5 13.0996C45.2 11.7996 43.4 11.0996 41.6 11.0996C39 10.9996 36.5 12.2996 35.2 14.5996C33.9 16.7996 33.9 19.5996 35.2 21.8996C36.5 24.0996 39 25.4996 41.6 25.3996C43.5 25.4996 45.3 24.7996 46.6 23.3996C47.7 22.1996 48.3 20.4996 48.3 18.8996C48.3 18.4996 48.3 18.0996 48.2 17.6996L41.6 17.7996ZM90.6 19.2996C90 17.5996 88.5 16.3996 86.7 16.3996C85.5 16.3996 84.4 16.8996 83.5 17.7996C82.7 18.6996 82.3 19.7996 82.3 20.9996C82.3 22.1996 82.7 23.3996 83.6 24.1996C84.5 25.0996 85.6 25.4996 86.9 25.4996C88.4 25.4996 89.9 24.7996 90.7 23.4996L89.1 22.3996C88.6 23.1996 87.8 23.6996 86.8 23.6996C85.8 23.6996 85 23.1996 84.6 22.2996L90.8 19.7996L90.6 19.2996ZM84.4 20.7996C84.4 20.0996 84.6 19.4996 85 18.9996C85.5 18.4996 86.1 18.1996 86.8 18.1996C87.5 18.1996 88.2 18.4996 88.5 19.1996L84.4 20.7996ZM79.4 25.1996H81.4V11.7996H79.4V25.1996ZM76.1 17.3996C75.4 16.6996 74.5 16.2996 73.6 16.2996C71.1 16.3996 69.2 18.3996 69.2 20.8996C69.2 23.3996 71.1 25.3996 73.6 25.4996C74.5 25.4996 75.4 25.0996 76 24.3996H76.1V25.0996C76.1 26.8996 75.2 27.7996 73.6 27.7996C72.6 27.7996 71.7 27.0996 71.3 26.1996L69.5 26.8996C70.2 28.4996 71.8 29.5996 73.6 29.5996C76 29.5996 77.9 28.1996 77.9 24.7996V16.6996H76L76.1 17.3996ZM73.7 23.6996C72.3 23.5996 71.1 22.3996 71.1 20.8996C71.1 19.4996 72.2 18.1996 73.7 18.0996C74.4 18.0996 75.1 18.3996 75.5 18.9996C76 19.4996 76.2 20.1996 76.1 20.8996C76.2 21.5996 75.9 22.2996 75.5 22.7996C75.1 23.3996 74.4 23.6996 73.7 23.6996ZM100.1 11.7996H95.3V25.1996H97.3V20.0996H100.1C101.7 20.1996 103.2 19.3996 104 18.0996C104.8 16.7996 104.8 15.0996 104 13.6996C103.2 12.4996 101.7 11.6996 100.1 11.7996ZM100.1 18.2996H97.3V13.6996H100.2C101.5 13.6996 102.5 14.6996 102.5 15.9996C102.5 17.2996 101.4 18.2996 100.1 18.2996ZM112.6 16.2996C111.1 16.1996 109.7 16.9996 109 18.3996L110.8 19.0996C111.2 18.3996 111.9 17.9996 112.6 18.0996C113.1 17.9996 113.6 18.1996 114 18.4996C114.4 18.7996 114.7 19.2996 114.7 19.7996V19.9996C114 19.6996 113.3 19.4996 112.6 19.4996C110.7 19.4996 108.7 20.5996 108.7 22.4996C108.7 23.2996 109.1 24.0996 109.7 24.6996C110.3 25.2996 111.2 25.4996 112 25.4996C113 25.5996 114 25.0996 114.6 24.1996H114.7V25.2996H116.6V20.0996C116.7 17.6996 114.9 16.3996 112.6 16.2996ZM112.3 23.6996C111.6 23.6996 110.7 23.3996 110.7 22.5996C110.7 21.4996 111.8 21.1996 112.9 21.1996C113.5 21.1996 114.2 21.2996 114.7 21.6996C114.6 22.7996 113.6 23.6996 112.3 23.6996ZM123.8 16.5996L121.5 22.3996H121.4L119 16.5996H116.8L120.4 24.6996L118.3 29.1996H120.4L125.9 16.4996H123.8V16.5996ZM105.6 25.1996H107.6V11.7996H105.6V25.1996Z" fill="white"/>
<path d="M41.3 3.9998C41.3 4.7998 41 5.5998 40.5 6.0998C39.9 6.6998 39 7.0998 38.1 7.0998C36.7 7.0998 35.5 6.2998 35 4.9998C34.5 3.6998 34.8 2.2998 35.7 1.2998C36.3 0.699804 37.2 0.299805 38.1 0.299805C38.6 0.299805 39 0.399805 39.4 0.599805C39.8 0.799805 40.1 0.999804 40.4 1.2998L39.8 1.8998C39.4 1.3998 38.7 1.0998 38 1.0998C37.3 1.0998 36.7 1.3998 36.2 1.8998C35.7 2.3998 35.5 2.99981 35.5 3.69981C35.5 4.69981 36.1 5.6998 37 6.0998C37.9 6.4998 39 6.2998 39.8 5.5998C40.1 5.1998 40.3 4.7998 40.3 4.2998H38V3.4998H41.1C41.3 3.6998 41.3 3.7998 41.3 3.9998ZM46.2 1.2998H43.3V3.2998H46V4.0998H43.3V6.0998H46.2V6.9998H42.4V0.599805H46.2V1.2998ZM49.8 6.9998H49V1.2998H47.2V0.499804H51.7V1.2998H49.8V6.9998ZM54.8 6.9998V0.599805H55.6V6.9998H54.8ZM59.4 6.9998H58.6V1.2998H56.8V0.499804H61.3V1.2998H59.5V6.9998H59.4ZM69.6 6.0998C68.3 7.39981 66.2 7.39981 64.8 6.0998C63.5 4.7998 63.5 2.6998 64.8 1.2998C66.1 -0.000196218 68.2 -0.000196218 69.6 1.2998C70.9 2.6998 70.9 4.7998 69.6 6.0998ZM65.5 5.5998C66.5 6.5998 68.1 6.5998 69 5.5998C70 4.5998 70 2.8998 69 1.8998C68 0.899804 66.5 0.899804 65.5 1.8998C64.5 2.8998 64.5 4.5998 65.5 5.5998ZM71.7 6.9998V0.599805H72.7L75.9 5.5998V0.599805H76.7V6.9998H75.8L72.5 1.69981V6.9998H71.7Z" fill="white" stroke="white" stroke-width="0.5"/>
<path d="M1.29999 1.09961C0.899988 1.49961 0.799988 2.09961 0.799988 2.59961V26.3996C0.799988 26.8996 0.899988 27.4996 1.29999 27.8996L1.39999 27.9996L14.8 14.6996V14.3996L1.29999 1.09961Z" fill="url(#paint0_linear)"/>
<path d="M19.2 19.0999L14.8 14.6999V14.3999L19.2 9.8999L19.3 9.9999L24.6 12.9999C26.1 13.8999 26.1 15.1999 24.6 16.0999L19.3 19.0999H19.2Z" fill="url(#paint1_linear)"/>
<path d="M19.3 19L14.7 14.5L1.29999 27.9C1.89999 28.5 2.89999 28.5 3.49999 28L19.3 19Z" fill="url(#paint2_linear)"/>
<path d="M19.3 9.99958L3.49999 0.999584C2.79999 0.499584 1.89999 0.499584 1.29999 1.09958L14.8 14.4996L19.3 9.99958Z" fill="url(#paint3_linear)"/>
<path opacity="0.2" d="M19.2 18.8999L3.50001 27.7999C2.90001 28.2999 2.00001 28.2999 1.30001 27.7999L1.20001 27.8999L1.30001 27.9999C1.90001 28.4999 2.80001 28.4999 3.50001 27.9999L19.3 18.9999L19.2 18.8999Z" fill="black"/>
<path opacity="0.12" d="M1.29999 27.7C0.899988 27.3 0.799988 26.7 0.799988 26.2V26.4C0.799988 26.9 0.899988 27.5 1.29999 27.9V27.7ZM24.6 15.9L19.2 18.9L19.3 19L24.6 16C25.2 15.7 25.6 15.1 25.7 14.5C25.6 15.1 25.2 15.6 24.6 15.9Z" fill="black"/>
<path opacity="0.25" d="M3.49999 1.19976L24.6 13.0998C25.2 13.3998 25.6 13.8998 25.7 14.4998C25.6 13.7998 25.2 13.1998 24.6 12.9998L3.49999 0.999757C1.99999 0.0997565 0.799988 0.899757 0.799988 2.59976V2.79976C0.799988 1.09976 1.99999 0.299757 3.49999 1.19976Z" fill="white"/>
<defs>
<linearGradient id="paint0_linear" x1="9.40126" y1="2.42758" x2="-2.07528" y2="13.8351" gradientUnits="userSpaceOnUse">
<stop stop-color="#00A0FF"/>
<stop offset="0.01" stop-color="#00A1FF"/>
<stop offset="0.26" stop-color="#00BEFF"/>
<stop offset="0.51" stop-color="#00D2FF"/>
<stop offset="0.76" stop-color="#00DFFF"/>
<stop offset="1" stop-color="#00E3FF"/>
</linearGradient>
<linearGradient id="paint1_linear" x1="26.5864" y1="14.4999" x2="0.426117" y2="14.4999" gradientUnits="userSpaceOnUse">
<stop stop-color="#FFE000"/>
<stop offset="0.41" stop-color="#FFBD00"/>
<stop offset="0.78" stop-color="#FFA500"/>
<stop offset="1" stop-color="#FF9C00"/>
</linearGradient>
<linearGradient id="paint2_linear" x1="15.6441" y1="17.5835" x2="-3.92217" y2="37.0238" gradientUnits="userSpaceOnUse">
<stop stop-color="#FF3A44"/>
<stop offset="1" stop-color="#C31162"/>
</linearGradient>
<linearGradient id="paint3_linear" x1="-3.31221" y1="0.341831" x2="5.41995" y2="9.0232" gradientUnits="userSpaceOnUse">
<stop stop-color="#32A071"/>
<stop offset="0.07" stop-color="#2DA771"/>
<stop offset="0.48" stop-color="#15CF74"/>
<stop offset="0.8" stop-color="#06E775"/>
<stop offset="1" stop-color="#00F076"/>
</linearGradient>
</defs>
</svg>
